<?xml version="1.0" standalone="no"?>
<!DOCTYPE svg PUBLIC "-//W3C//DTD SVG 20010904//EN"
 "http://www.w3.org/TR/2001/REC-SVG-20010904/DTD/svg10.dtd">
<svg version="1.0" xmlns="http://www.w3.org/2000/svg"
 width="512.000000pt" height="512.000000pt" viewBox="0 0 512.000000 512.000000"
 preserveAspectRatio="xMidYMid meet">

<g transform="translate(0.000000,512.000000) scale(0.100000,-0.100000)"
fill="#000000" stroke="none">
<path d="M564 4580 c-213 -32 -384 -186 -439 -396 -13 -51 -15 -261 -15 -1624
0 -1363 2 -1573 15 -1624 47 -180 183 -323 360 -379 l70 -22 2005 0 2005 0 70
22 c180 57 328 218 365 397 7 35 9 485 8 1421 l-3 1370 -22 60 c-48 125 -138
229 -253 289 -128 68 -92 66 -1150 66 l-955 0 -52 103 c-81 160 -184 251 -343
303 -51 17 -110 19 -835 20 -429 1 -803 -2 -831 -6z m1632 -231 c110 -41 127
-65 320 -451 116 -230 182 -352 197 -360 17 -10 220 -14 932 -18 l910 -5 56
-26 c71 -33 125 -87 158 -158 l26 -56 0 -1145 0 -1145 -25 -50 c-35 -73 -105
-138 -173 -164 l-58 -21 -1979 0 -1979 0 -58 21 c-68 26 -138 91 -173 164
l-25 50 0 1575 0 1575 25 50 c35 71 105 138 171 163 53 21 68 21 836 21 775 1
783 1 839 -20z m2397 -423 c101 -39 185 -145 203 -255 l7 -42 -64 35 c-124 68
-90 66 -1041 66 l-858 0 -50 100 c-27 55 -50 104 -50 110 0 7 280 10 903 8
851 -3 905 -4 950 -22z"/>
</g>
</svg>
