<?xml version="1.0" standalone="no"?>
<!DOCTYPE svg PUBLIC "-//W3C//DTD SVG 20010904//EN"
 "http://www.w3.org/TR/2001/REC-SVG-20010904/DTD/svg10.dtd">
<svg version="1.0" xmlns="http://www.w3.org/2000/svg"
 width="512.000000pt" height="512.000000pt" viewBox="0 0 512.000000 512.000000"
 preserveAspectRatio="xMidYMid meet">

<g transform="translate(0.000000,512.000000) scale(0.100000,-0.100000)"
fill="#000000" stroke="none">
<path d="M393 5106 c-183 -45 -344 -210 -382 -394 -8 -38 -11 -555 -11 -1770
0 -1891 -3 -1782 62 -1905 41 -76 129 -164 205 -205 113 -60 134 -62 595 -62
l418 0 0 255 0 255 -385 0 -385 0 0 1665 0 1665 513 -2 512 -3 5 -550 c5 -512
6 -552 24 -585 26 -49 64 -88 111 -113 39 -22 50 -22 590 -27 l550 -5 3 -252
2 -253 255 0 255 0 0 298 c0 265 -2 308 -20 376 -37 147 -29 137 -754 862
-652 653 -673 673 -746 707 -41 19 -99 40 -128 46 -79 16 -1220 13 -1289 -3z"/>
<path d="M3230 2280 c-288 -75 -513 -298 -591 -585 -19 -68 -22 -107 -22 -255
-1 -150 3 -186 21 -255 44 -158 119 -283 236 -393 60 -56 206 -152 231 -152 5
0 24 35 42 78 17 42 61 147 96 234 l65 156 -48 30 c-51 32 -99 94 -121 157 -9
25 -14 81 -14 151 1 105 3 115 33 177 37 74 86 119 162 148 46 17 81 19 418
19 433 0 434 0 523 -89 73 -73 89 -120 89 -261 0 -71 -5 -122 -16 -153 -19
-58 -93 -141 -148 -169 -22 -11 -43 -22 -45 -24 -2 -2 27 -112 65 -244 51
-182 72 -240 84 -240 31 0 217 100 277 149 119 98 228 267 270 421 15 52 18
104 18 265 0 181 -2 207 -23 275 -82 262 -282 464 -547 551 -68 23 -80 23
-525 26 -424 2 -460 1 -530 -17z"/>
<path d="M2240 1717 c-136 -59 -272 -169 -349 -281 -46 -66 -105 -198 -127
-281 -15 -56 -18 -106 -18 -245 1 -160 3 -182 27 -263 44 -143 97 -236 196
-341 102 -107 215 -176 368 -223 l88 -28 440 0 c425 1 443 1 520 23 234 66
416 215 521 427 73 148 87 223 82 444 -5 168 -7 193 -32 264 -46 137 -105 232
-202 331 -77 78 -233 180 -249 164 -2 -2 -49 -107 -104 -233 l-100 -230 27
-14 c44 -22 92 -73 120 -126 23 -44 27 -64 30 -170 3 -104 1 -128 -18 -177
-26 -71 -84 -132 -158 -166 l-57 -27 -370 0 c-433 0 -443 2 -531 89 -70 71
-89 127 -88 271 0 92 4 118 23 162 26 58 102 136 156 158 30 13 33 17 26 42
-85 287 -134 449 -140 455 -3 4 -40 -7 -81 -25z"/>
</g>
</svg>
